<svg xmlns="http://www.w3.org/2000/svg" viewBox="0 0 512 512" width="100%" height="100%">
  <defs>
    <linearGradient id="grad" x1="0%" y1="0%" x2="100%" y2="100%">
      <stop offset="0%" style="stop-color:#f97316;stop-opacity:1" />
      <stop offset="100%" style="stop-color:#ea580c;stop-opacity:1" />
    </linearGradient>
    <filter id="shadow" x="-10%" y="-10%" width="120%" height="120%">
      <drop-shadow dx="0" dy="8" stdDeviation="6" flood-opacity="0.3"/>
    </filter>
  </defs>
  
  <rect width="512" height="512" rx="120" fill="url(#grad)" />
  
  <g filter="url(#shadow)" fill="#ffffff">
    <path d="M180,140 v100 c0,30 20,50 45,50 v100 h25 v-100 c25,0 45,-20 45,-50 v-100 h-15 v100 c0,15 -10,25 -25,25 s-25,-10 -25,-25 v-100 h-15 v100 c0,15 -10,25 -25,25 s-25,-10 -25,-25 v-100 z" />
    <path d="M300,140 c0,0 -10,40 -10,70 c0,40 20,70 40,70 v140 h25 v-140 c20,0 40,-30 40,-70 c0,-30 -10,-70 -10,-70 z" />
  </g>
  
  <text x="256" y="440" font-family="Arial, Helvetica, sans-serif" font-size="42" font-weight="900" fill="#ffffff" text-anchor="middle" letter-spacing="2">UNILAM KANTIN</text>
</svg>
